<?xml version="1.0" encoding="UTF-8" standalone="no"?>
<!DOCTYPE svg PUBLIC "-//W3C//DTD SVG 1.1//EN"
 "http://www.w3.org/Graphics/SVG/1.1/DTD/svg11.dtd">
<!-- Generated by graphviz version 2.30.0 (20130131.1358)
 -->
<!-- Title: snakemake_dag Pages: 1 -->
<svg width="367pt" height="1340pt"
 viewBox="0.00 0.00 367.09 1340.00" xmlns="http://www.w3.org/2000/svg" xmlns:xlink="http://www.w3.org/1999/xlink">
<g id="graph0" class="graph" transform="scale(1 1) rotate(0) translate(4 1336)">
<title>snakemake_dag</title>
<polygon fill="white" stroke="white" points="-4,5 -4,-1336 364.088,-1336 364.088,5 -4,5"/>
<!-- 0 -->
<g id="node1" class="node"><title>0</title>
<path fill="none" stroke="#68d856" stroke-width="2" d="M65,-36C65,-36 35,-36 35,-36 29,-36 23,-30 23,-24 23,-24 23,-12 23,-12 23,-6 29,-0 35,-0 35,-0 65,-0 65,-0 71,-0 77,-6 77,-12 77,-12 77,-24 77,-24 77,-30 71,-36 65,-36"/>
<text text-anchor="middle" x="50" y="-15" font-family="sans" font-size="10.00">all</text>
</g>
<!-- 1 -->
<g id="node2" class="node"><title>1</title>
<path fill="none" stroke="#80d856" stroke-width="2" d="M42,-1188C42,-1188 12,-1188 12,-1188 6,-1188 0,-1182 0,-1176 0,-1176 0,-1164 0,-1164 0,-1158 6,-1152 12,-1152 12,-1152 42,-1152 42,-1152 48,-1152 54,-1158 54,-1164 54,-1164 54,-1176 54,-1176 54,-1182 48,-1188 42,-1188"/>
<text text-anchor="middle" x="27" y="-1167" font-family="sans" font-size="10.00">qc</text>
</g>
<!-- 1&#45;&gt;0 -->
<g id="edge1" class="edge"><title>1&#45;&gt;0</title>
<path fill="none" stroke="grey" stroke-width="2" d="M22.9527,-1151.62C17.1086,-1124.97 7,-1072.31 7,-1027 7,-1027 7,-1027 7,-161 7,-119.295 24.2003,-73.5423 36.8439,-45.5445"/>
<polygon fill="grey" stroke="grey" points="40.0452,-46.9607 41.0904,-36.4176 33.6985,-44.0078 40.0452,-46.9607"/>
</g>
<!-- 2 -->
<g id="node3" class="node"><title>2</title>
<path fill="none" stroke="#566bd8" stroke-width="2" d="M138.564,-108C138.564,-108 47.4363,-108 47.4363,-108 41.4363,-108 35.4363,-102 35.4363,-96 35.4363,-96 35.4363,-84 35.4363,-84 35.4363,-78 41.4363,-72 47.4363,-72 47.4363,-72 138.564,-72 138.564,-72 144.564,-72 150.564,-78 150.564,-84 150.564,-84 150.564,-96 150.564,-96 150.564,-102 144.564,-108 138.564,-108"/>
<text text-anchor="middle" x="93" y="-87" font-family="sans" font-size="10.00">filter_non_coding_genes</text>
</g>
<!-- 2&#45;&gt;0 -->
<g id="edge2" class="edge"><title>2&#45;&gt;0</title>
<path fill="none" stroke="grey" stroke-width="2" d="M82.3708,-71.6966C77.3719,-63.5589 71.309,-53.689 65.7879,-44.7013"/>
<polygon fill="grey" stroke="grey" points="68.7234,-42.7931 60.5069,-36.1043 62.7589,-46.4571 68.7234,-42.7931"/>
</g>
<!-- 3 -->
<g id="node4" class="node"><title>3</title>
<path fill="none" stroke="#56a9d8" stroke-width="2" d="M87.2425,-1332C87.2425,-1332 54.7575,-1332 54.7575,-1332 48.7575,-1332 42.7575,-1326 42.7575,-1320 42.7575,-1320 42.7575,-1308 42.7575,-1308 42.7575,-1302 48.7575,-1296 54.7575,-1296 54.7575,-1296 87.2425,-1296 87.2425,-1296 93.2425,-1296 99.2425,-1302 99.2425,-1308 99.2425,-1308 99.2425,-1320 99.2425,-1320 99.2425,-1326 93.2425,-1332 87.2425,-1332"/>
<text text-anchor="middle" x="71" y="-1311" font-family="sans" font-size="10.00">trimgalore</text>
</g>
<!-- 3&#45;&gt;1 -->
<g id="edge3" class="edge"><title>3&#45;&gt;1</title>
<path fill="none" stroke="grey" stroke-width="2" d="M65.6926,-1295.87C58.1606,-1271.56 44.2959,-1226.82 35.3703,-1198.01"/>
<polygon fill="grey" stroke="grey" points="38.6293,-1196.71 32.3263,-1188.19 31.9429,-1198.78 38.6293,-1196.71"/>
</g>
<!-- 22 -->
<g id="node23" class="node"><title>22</title>
<path fill="none" stroke="#56d8d8" stroke-width="2" d="M120.413,-1260C120.413,-1260 85.5867,-1260 85.5867,-1260 79.5867,-1260 73.5867,-1254 73.5867,-1248 73.5867,-1248 73.5867,-1236 73.5867,-1236 73.5867,-1230 79.5867,-1224 85.5867,-1224 85.5867,-1224 120.413,-1224 120.413,-1224 126.413,-1224 132.413,-1230 132.413,-1236 132.413,-1236 132.413,-1248 132.413,-1248 132.413,-1254 126.413,-1260 120.413,-1260"/>
<text text-anchor="middle" x="103" y="-1239" font-family="sans" font-size="10.00">align_hisat</text>
</g>
<!-- 3&#45;&gt;22 -->
<g id="edge29" class="edge"><title>3&#45;&gt;22</title>
<path fill="none" stroke="grey" stroke-width="2" d="M78.9101,-1295.7C82.5527,-1287.73 86.9545,-1278.1 90.9935,-1269.26"/>
<polygon fill="grey" stroke="grey" points="94.2064,-1270.65 95.1809,-1260.1 87.8401,-1267.74 94.2064,-1270.65"/>
</g>
<!-- 4 -->
<g id="node5" class="node"><title>4</title>
<path fill="none" stroke="#56d8c1" stroke-width="2" d="M126.239,-180C126.239,-180 59.7612,-180 59.7612,-180 53.7612,-180 47.7612,-174 47.7612,-168 47.7612,-168 47.7612,-156 47.7612,-156 47.7612,-150 53.7612,-144 59.7612,-144 59.7612,-144 126.239,-144 126.239,-144 132.239,-144 138.239,-150 138.239,-156 138.239,-156 138.239,-168 138.239,-168 138.239,-174 132.239,-180 126.239,-180"/>
<text text-anchor="middle" x="93" y="-159" font-family="sans" font-size="10.00">non_coding_genes</text>
</g>
<!-- 4&#45;&gt;2 -->
<g id="edge4" class="edge"><title>4&#45;&gt;2</title>
<path fill="none" stroke="grey" stroke-width="2" d="M93,-143.697C93,-135.983 93,-126.712 93,-118.112"/>
<polygon fill="grey" stroke="grey" points="96.5001,-118.104 93,-108.104 89.5001,-118.104 96.5001,-118.104"/>
</g>
<!-- 5 -->
<g id="node6" class="node"><title>5</title>
<path fill="none" stroke="#56d8a9" stroke-width="2" d="M192.056,-540C192.056,-540 63.9445,-540 63.9445,-540 57.9445,-540 51.9445,-534 51.9445,-528 51.9445,-528 51.9445,-516 51.9445,-516 51.9445,-510 57.9445,-504 63.9445,-504 63.9445,-504 192.056,-504 192.056,-504 198.056,-504 204.056,-510 204.056,-516 204.056,-516 204.056,-528 204.056,-528 204.056,-534 198.056,-540 192.056,-540"/>
<text text-anchor="middle" x="128" y="-519" font-family="sans" font-size="10.00">non_coding_transcript_from_cpat</text>
</g>
<!-- 5&#45;&gt;4 -->
<g id="edge6" class="edge"><title>5&#45;&gt;4</title>
<path fill="none" stroke="grey" stroke-width="2" d="M120.512,-503.887C109.701,-477.577 91,-425.366 91,-379 91,-379 91,-379 91,-305 91,-264.992 91.8036,-218.65 92.392,-190.078"/>
<polygon fill="grey" stroke="grey" points="95.8918,-190.12 92.6049,-180.048 88.8934,-189.972 95.8918,-190.12"/>
</g>
<!-- 9 -->
<g id="node10" class="node"><title>9</title>
<path fill="none" stroke="#afd856" stroke-width="2" d="M252.14,-324C252.14,-324 177.86,-324 177.86,-324 171.86,-324 165.86,-318 165.86,-312 165.86,-312 165.86,-300 165.86,-300 165.86,-294 171.86,-288 177.86,-288 177.86,-288 252.14,-288 252.14,-288 258.14,-288 264.14,-294 264.14,-300 264.14,-300 264.14,-312 264.14,-312 264.14,-318 258.14,-324 252.14,-324"/>
<text text-anchor="middle" x="215" y="-303" font-family="sans" font-size="10.00">gene_transcript_pair</text>
</g>
<!-- 5&#45;&gt;9 -->
<g id="edge14" class="edge"><title>5&#45;&gt;9</title>
<path fill="none" stroke="grey" stroke-width="2" d="M126.069,-503.714C123.451,-472.734 121.755,-406.638 148,-360 154.543,-348.373 164.76,-338.374 175.261,-330.293"/>
<polygon fill="grey" stroke="grey" points="177.611,-332.914 183.679,-324.23 173.52,-327.234 177.611,-332.914"/>
</g>
<!-- 19 -->
<g id="node20" class="node"><title>19</title>
<path fill="none" stroke="#569ad8" stroke-width="2" d="M307.974,-468C307.974,-468 170.026,-468 170.026,-468 164.026,-468 158.026,-462 158.026,-456 158.026,-456 158.026,-444 158.026,-444 158.026,-438 164.026,-432 170.026,-432 170.026,-432 307.974,-432 307.974,-432 313.974,-432 319.974,-438 319.974,-444 319.974,-444 319.974,-456 319.974,-456 319.974,-462 313.974,-468 307.974,-468"/>
<text text-anchor="middle" x="239" y="-447" font-family="sans" font-size="10.00">genelist_for_non_coding_transcripts</text>
</g>
<!-- 5&#45;&gt;19 -->
<g id="edge26" class="edge"><title>5&#45;&gt;19</title>
<path fill="none" stroke="grey" stroke-width="2" d="M155.154,-503.876C169.533,-494.808 187.381,-483.552 202.91,-473.759"/>
<polygon fill="grey" stroke="grey" points="205.15,-476.484 211.742,-468.19 201.416,-470.564 205.15,-476.484"/>
</g>
<!-- 6 -->
<g id="node7" class="node"><title>6</title>
<path fill="none" stroke="#59d856" stroke-width="2" d="M298.142,-252C298.142,-252 131.858,-252 131.858,-252 125.858,-252 119.858,-246 119.858,-240 119.858,-240 119.858,-228 119.858,-228 119.858,-222 125.858,-216 131.858,-216 131.858,-216 298.142,-216 298.142,-216 304.142,-216 310.142,-222 310.142,-228 310.142,-228 310.142,-240 310.142,-240 310.142,-246 304.142,-252 298.142,-252"/>
<text text-anchor="middle" x="215" y="-231" font-family="sans" font-size="10.00">coding_isoform_of_non_coding_transcripts</text>
</g>
<!-- 6&#45;&gt;4 -->
<g id="edge5" class="edge"><title>6&#45;&gt;4</title>
<path fill="none" stroke="grey" stroke-width="2" d="M185.155,-215.876C169.056,-206.639 148.999,-195.131 131.712,-185.212"/>
<polygon fill="grey" stroke="grey" points="133.375,-182.131 122.959,-180.19 129.891,-188.202 133.375,-182.131"/>
</g>
<!-- 7 -->
<g id="node8" class="node"><title>7</title>
<path fill="none" stroke="#d8c356" stroke-width="2" d="M161.306,-612C161.306,-612 94.6943,-612 94.6943,-612 88.6943,-612 82.6943,-606 82.6943,-600 82.6943,-600 82.6943,-588 82.6943,-588 82.6943,-582 88.6943,-576 94.6943,-576 94.6943,-576 161.306,-576 161.306,-576 167.306,-576 173.306,-582 173.306,-588 173.306,-588 173.306,-600 173.306,-600 173.306,-606 167.306,-612 161.306,-612"/>
<text text-anchor="middle" x="128" y="-591" font-family="sans" font-size="10.00">cpat_cpc_intersect</text>
</g>
<!-- 7&#45;&gt;5 -->
<g id="edge8" class="edge"><title>7&#45;&gt;5</title>
<path fill="none" stroke="grey" stroke-width="2" d="M128,-575.697C128,-567.983 128,-558.712 128,-550.112"/>
<polygon fill="grey" stroke="grey" points="131.5,-550.104 128,-540.104 124.5,-550.104 131.5,-550.104"/>
</g>
<!-- 8 -->
<g id="node9" class="node"><title>8</title>
<path fill="none" stroke="#d6d856" stroke-width="2" d="M182.958,-972C182.958,-972 55.0416,-972 55.0416,-972 49.0416,-972 43.0416,-966 43.0416,-960 43.0416,-960 43.0416,-948 43.0416,-948 43.0416,-942 49.0416,-936 55.0416,-936 55.0416,-936 182.958,-936 182.958,-936 188.958,-936 194.958,-942 194.958,-948 194.958,-948 194.958,-960 194.958,-960 194.958,-966 188.958,-972 182.958,-972"/>
<text text-anchor="middle" x="119" y="-951" font-family="sans" font-size="10.00">gffcompare_for_novel_transcripts</text>
</g>
<!-- 8&#45;&gt;5 -->
<g id="edge7" class="edge"><title>8&#45;&gt;5</title>
<path fill="none" stroke="grey" stroke-width="2" d="M95.4685,-935.796C84.2961,-926.425 71.7282,-913.91 64,-900 44.3565,-864.643 45,-851.447 45,-811 45,-811 45,-811 45,-665 45,-623.398 52.0825,-611.361 74,-576 80.5301,-565.465 89.5828,-555.495 98.4112,-547.106"/>
<polygon fill="grey" stroke="grey" points="100.999,-549.483 106.043,-540.165 96.2897,-544.304 100.999,-549.483"/>
</g>
<!-- 14 -->
<g id="node15" class="node"><title>14</title>
<path fill="none" stroke="#d89556" stroke-width="2" d="M169.059,-900C169.059,-900 84.9413,-900 84.9413,-900 78.9413,-900 72.9413,-894 72.9413,-888 72.9413,-888 72.9413,-876 72.9413,-876 72.9413,-870 78.9413,-864 84.9413,-864 84.9413,-864 169.059,-864 169.059,-864 175.059,-864 181.059,-870 181.059,-876 181.059,-876 181.059,-888 181.059,-888 181.059,-894 175.059,-900 169.059,-900"/>
<text text-anchor="middle" x="127" y="-879" font-family="sans" font-size="10.00">novel_transcripts_fasta</text>
</g>
<!-- 8&#45;&gt;14 -->
<g id="edge22" class="edge"><title>8&#45;&gt;14</title>
<path fill="none" stroke="grey" stroke-width="2" d="M120.978,-935.697C121.859,-927.983 122.919,-918.712 123.901,-910.112"/>
<polygon fill="grey" stroke="grey" points="127.387,-910.437 125.045,-900.104 120.432,-909.642 127.387,-910.437"/>
</g>
<!-- 9&#45;&gt;6 -->
<g id="edge9" class="edge"><title>9&#45;&gt;6</title>
<path fill="none" stroke="grey" stroke-width="2" d="M215,-287.697C215,-279.983 215,-270.712 215,-262.112"/>
<polygon fill="grey" stroke="grey" points="218.5,-262.104 215,-252.104 211.5,-262.104 218.5,-262.104"/>
</g>
<!-- 10 -->
<g id="node11" class="node"><title>10</title>
<path fill="none" stroke="#56d89a" stroke-width="2" d="M219,-828C219,-828 189,-828 189,-828 183,-828 177,-822 177,-816 177,-816 177,-804 177,-804 177,-798 183,-792 189,-792 189,-792 219,-792 219,-792 225,-792 231,-798 231,-804 231,-804 231,-816 231,-816 231,-822 225,-828 219,-828"/>
<text text-anchor="middle" x="204" y="-807" font-family="sans" font-size="10.00">cpat</text>
</g>
<!-- 10&#45;&gt;7 -->
<g id="edge11" class="edge"><title>10&#45;&gt;7</title>
<path fill="none" stroke="grey" stroke-width="2" d="M201.577,-791.933C196.891,-761.85 185.054,-697.854 163,-648 158.828,-638.57 153.034,-628.957 147.359,-620.553"/>
<polygon fill="grey" stroke="grey" points="150.171,-618.467 141.562,-612.292 144.441,-622.488 150.171,-618.467"/>
</g>
<!-- 11 -->
<g id="node12" class="node"><title>11</title>
<path fill="none" stroke="#c6d856" stroke-width="2" d="M142,-684C142,-684 112,-684 112,-684 106,-684 100,-678 100,-672 100,-672 100,-660 100,-660 100,-654 106,-648 112,-648 112,-648 142,-648 142,-648 148,-648 154,-654 154,-660 154,-660 154,-672 154,-672 154,-678 148,-684 142,-684"/>
<text text-anchor="middle" x="127" y="-663" font-family="sans" font-size="10.00">sort_cpc</text>
</g>
<!-- 11&#45;&gt;7 -->
<g id="edge10" class="edge"><title>11&#45;&gt;7</title>
<path fill="none" stroke="grey" stroke-width="2" d="M127.247,-647.697C127.357,-639.983 127.49,-630.712 127.613,-622.112"/>
<polygon fill="grey" stroke="grey" points="131.112,-622.153 127.756,-612.104 124.113,-622.053 131.112,-622.153"/>
</g>
<!-- 12 -->
<g id="node13" class="node"><title>12</title>
<path fill="none" stroke="#56c1d8" stroke-width="2" d="M134,-1044C134,-1044 104,-1044 104,-1044 98,-1044 92,-1038 92,-1032 92,-1032 92,-1020 92,-1020 92,-1014 98,-1008 104,-1008 104,-1008 134,-1008 134,-1008 140,-1008 146,-1014 146,-1020 146,-1020 146,-1032 146,-1032 146,-1038 140,-1044 134,-1044"/>
<text text-anchor="middle" x="119" y="-1023" font-family="sans" font-size="10.00">stringtie</text>
</g>
<!-- 12&#45;&gt;8 -->
<g id="edge12" class="edge"><title>12&#45;&gt;8</title>
<path fill="none" stroke="grey" stroke-width="2" d="M119,-1007.7C119,-999.983 119,-990.712 119,-982.112"/>
<polygon fill="grey" stroke="grey" points="122.5,-982.104 119,-972.104 115.5,-982.104 122.5,-982.104"/>
</g>
<!-- 13 -->
<g id="node14" class="node"><title>13</title>
<path fill="none" stroke="#d85656" stroke-width="2" d="M310.551,-396C310.551,-396 169.449,-396 169.449,-396 163.449,-396 157.449,-390 157.449,-384 157.449,-384 157.449,-372 157.449,-372 157.449,-366 163.449,-360 169.449,-360 169.449,-360 310.551,-360 310.551,-360 316.551,-360 322.551,-366 322.551,-372 322.551,-372 322.551,-384 322.551,-384 322.551,-390 316.551,-396 310.551,-396"/>
<text text-anchor="middle" x="240" y="-375" font-family="sans" font-size="10.00">all_genes_for_non_coding_transcript</text>
</g>
<!-- 12&#45;&gt;13 -->
<g id="edge20" class="edge"><title>12&#45;&gt;13</title>
<path fill="none" stroke="grey" stroke-width="2" d="M146.205,-1021.47C196.959,-1014.36 303.355,-996.87 330,-972 360.413,-943.613 359,-924.602 359,-883 359,-883 359,-883 359,-521 359,-479.258 355.228,-464.473 329,-432 318.804,-419.376 304.738,-409.066 290.797,-401.008"/>
<polygon fill="grey" stroke="grey" points="292.15,-397.759 281.696,-396.037 288.794,-403.902 292.15,-397.759"/>
</g>
<!-- 13&#45;&gt;9 -->
<g id="edge13" class="edge"><title>13&#45;&gt;9</title>
<path fill="none" stroke="grey" stroke-width="2" d="M233.82,-359.697C231.005,-351.813 227.609,-342.304 224.481,-333.546"/>
<polygon fill="grey" stroke="grey" points="227.768,-332.345 221.109,-324.104 221.176,-334.699 227.768,-332.345"/>
</g>
<!-- 14&#45;&gt;10 -->
<g id="edge17" class="edge"><title>14&#45;&gt;10</title>
<path fill="none" stroke="grey" stroke-width="2" d="M146.034,-863.697C155.545,-855.05 167.207,-844.449 177.57,-835.027"/>
<polygon fill="grey" stroke="grey" points="180.14,-837.421 185.185,-828.104 175.431,-832.241 180.14,-837.421"/>
</g>
<!-- 20 -->
<g id="node21" class="node"><title>20</title>
<path fill="none" stroke="#5682d8" stroke-width="2" d="M142,-828C142,-828 112,-828 112,-828 106,-828 100,-822 100,-816 100,-816 100,-804 100,-804 100,-798 106,-792 112,-792 112,-792 142,-792 142,-792 148,-792 154,-798 154,-804 154,-804 154,-816 154,-816 154,-822 148,-828 142,-828"/>
<text text-anchor="middle" x="127" y="-807" font-family="sans" font-size="10.00">cpc</text>
</g>
<!-- 14&#45;&gt;20 -->
<g id="edge27" class="edge"><title>14&#45;&gt;20</title>
<path fill="none" stroke="grey" stroke-width="2" d="M127,-863.697C127,-855.983 127,-846.712 127,-838.112"/>
<polygon fill="grey" stroke="grey" points="130.5,-838.104 127,-828.104 123.5,-838.104 130.5,-838.104"/>
</g>
<!-- 15 -->
<g id="node16" class="node"><title>15</title>
<path fill="none" stroke="#d8ac56" stroke-width="2" d="M318.321,-900C318.321,-900 249.679,-900 249.679,-900 243.679,-900 237.679,-894 237.679,-888 237.679,-888 237.679,-876 237.679,-876 237.679,-870 243.679,-864 249.679,-864 249.679,-864 318.321,-864 318.321,-864 324.321,-864 330.321,-870 330.321,-876 330.321,-876 330.321,-888 330.321,-888 330.321,-894 324.321,-900 318.321,-900"/>
<text text-anchor="middle" x="284" y="-879" font-family="sans" font-size="10.00">cpat_trainig_model</text>
</g>
<!-- 15&#45;&gt;10 -->
<g id="edge15" class="edge"><title>15&#45;&gt;10</title>
<path fill="none" stroke="grey" stroke-width="2" d="M264.225,-863.697C254.246,-854.965 241.989,-844.24 231.143,-834.75"/>
<polygon fill="grey" stroke="grey" points="233.378,-832.055 223.548,-828.104 228.769,-837.323 233.378,-832.055"/>
</g>
<!-- 16 -->
<g id="node17" class="node"><title>16</title>
<path fill="none" stroke="#d86e56" stroke-width="2" d="M309.488,-972C309.488,-972 234.512,-972 234.512,-972 228.512,-972 222.512,-966 222.512,-960 222.512,-960 222.512,-948 222.512,-948 222.512,-942 228.512,-936 234.512,-936 234.512,-936 309.488,-936 309.488,-936 315.488,-936 321.488,-942 321.488,-948 321.488,-948 321.488,-960 321.488,-960 321.488,-966 315.488,-972 309.488,-972"/>
<text text-anchor="middle" x="272" y="-951" font-family="sans" font-size="10.00">CPAT_training_data</text>
</g>
<!-- 16&#45;&gt;10 -->
<g id="edge16" class="edge"><title>16&#45;&gt;10</title>
<path fill="none" stroke="grey" stroke-width="2" d="M254.411,-935.76C245.36,-926.012 234.823,-913.166 228,-900 217.905,-880.521 211.739,-856.381 208.19,-838.158"/>
<polygon fill="grey" stroke="grey" points="211.612,-837.413 206.392,-828.193 204.723,-838.656 211.612,-837.413"/>
</g>
<!-- 16&#45;&gt;15 -->
<g id="edge23" class="edge"><title>16&#45;&gt;15</title>
<path fill="none" stroke="grey" stroke-width="2" d="M274.966,-935.697C276.289,-927.983 277.878,-918.712 279.352,-910.112"/>
<polygon fill="grey" stroke="grey" points="282.828,-910.552 281.068,-900.104 275.928,-909.369 282.828,-910.552"/>
</g>
<!-- 17 -->
<g id="node18" class="node"><title>17</title>
<path fill="none" stroke="#d88556" stroke-width="2" d="M142.234,-756C142.234,-756 111.766,-756 111.766,-756 105.766,-756 99.7655,-750 99.7655,-744 99.7655,-744 99.7655,-732 99.7655,-732 99.7655,-726 105.766,-720 111.766,-720 111.766,-720 142.234,-720 142.234,-720 148.234,-720 154.234,-726 154.234,-732 154.234,-732 154.234,-744 154.234,-744 154.234,-750 148.234,-756 142.234,-756"/>
<text text-anchor="middle" x="127" y="-735" font-family="sans" font-size="10.00">filter_cpc</text>
</g>
<!-- 17&#45;&gt;11 -->
<g id="edge18" class="edge"><title>17&#45;&gt;11</title>
<path fill="none" stroke="grey" stroke-width="2" d="M127,-719.697C127,-711.983 127,-702.712 127,-694.112"/>
<polygon fill="grey" stroke="grey" points="130.5,-694.104 127,-684.104 123.5,-694.104 130.5,-694.104"/>
</g>
<!-- 18 -->
<g id="node19" class="node"><title>18</title>
<path fill="none" stroke="#56d882" stroke-width="2" d="M129,-1116C129,-1116 99,-1116 99,-1116 93,-1116 87,-1110 87,-1104 87,-1104 87,-1092 87,-1092 87,-1086 93,-1080 99,-1080 99,-1080 129,-1080 129,-1080 135,-1080 141,-1086 141,-1092 141,-1092 141,-1104 141,-1104 141,-1110 135,-1116 129,-1116"/>
<text text-anchor="middle" x="114" y="-1095" font-family="sans" font-size="10.00">sort_bam</text>
</g>
<!-- 18&#45;&gt;12 -->
<g id="edge19" class="edge"><title>18&#45;&gt;12</title>
<path fill="none" stroke="grey" stroke-width="2" d="M115.236,-1079.7C115.787,-1071.98 116.449,-1062.71 117.063,-1054.11"/>
<polygon fill="grey" stroke="grey" points="120.557,-1054.33 117.778,-1044.1 113.575,-1053.83 120.557,-1054.33"/>
</g>
<!-- 19&#45;&gt;13 -->
<g id="edge21" class="edge"><title>19&#45;&gt;13</title>
<path fill="none" stroke="grey" stroke-width="2" d="M239.247,-431.697C239.357,-423.983 239.49,-414.712 239.613,-406.112"/>
<polygon fill="grey" stroke="grey" points="243.112,-406.153 239.756,-396.104 236.113,-406.053 243.112,-406.153"/>
</g>
<!-- 20&#45;&gt;17 -->
<g id="edge24" class="edge"><title>20&#45;&gt;17</title>
<path fill="none" stroke="grey" stroke-width="2" d="M127,-791.697C127,-783.983 127,-774.712 127,-766.112"/>
<polygon fill="grey" stroke="grey" points="130.5,-766.104 127,-756.104 123.5,-766.104 130.5,-766.104"/>
</g>
<!-- 21 -->
<g id="node22" class="node"><title>21</title>
<path fill="none" stroke="#97d856" stroke-width="2" d="M124.244,-1188C124.244,-1188 93.7558,-1188 93.7558,-1188 87.7558,-1188 81.7558,-1182 81.7558,-1176 81.7558,-1176 81.7558,-1164 81.7558,-1164 81.7558,-1158 87.7558,-1152 93.7558,-1152 93.7558,-1152 124.244,-1152 124.244,-1152 130.244,-1152 136.244,-1158 136.244,-1164 136.244,-1164 136.244,-1176 136.244,-1176 136.244,-1182 130.244,-1188 124.244,-1188"/>
<text text-anchor="middle" x="109" y="-1167" font-family="sans" font-size="10.00">sam2bam</text>
</g>
<!-- 21&#45;&gt;18 -->
<g id="edge25" class="edge"><title>21&#45;&gt;18</title>
<path fill="none" stroke="grey" stroke-width="2" d="M110.236,-1151.7C110.787,-1143.98 111.449,-1134.71 112.063,-1126.11"/>
<polygon fill="grey" stroke="grey" points="115.557,-1126.33 112.778,-1116.1 108.575,-1125.83 115.557,-1126.33"/>
</g>
<!-- 22&#45;&gt;21 -->
<g id="edge28" class="edge"><title>22&#45;&gt;21</title>
<path fill="none" stroke="grey" stroke-width="2" d="M104.483,-1223.7C105.144,-1215.98 105.939,-1206.71 106.676,-1198.11"/>
<polygon fill="grey" stroke="grey" points="110.167,-1198.37 107.534,-1188.1 103.193,-1197.77 110.167,-1198.37"/>
</g>
</g>
</svg>
