<?xml version="1.0" encoding="UTF-8" standalone="no"?>
<!DOCTYPE svg PUBLIC "-//W3C//DTD SVG 1.1//EN"
 "http://www.w3.org/Graphics/SVG/1.1/DTD/svg11.dtd">
<!-- Generated by graphviz version 2.30.0 (20130131.1358)
 -->
<!-- Title: snakemake_dag Pages: 1 -->
<svg width="425pt" height="1340pt"
 viewBox="0.00 0.00 425.09 1340.00" xmlns="http://www.w3.org/2000/svg" xmlns:xlink="http://www.w3.org/1999/xlink">
<g id="graph0" class="graph" transform="scale(1 1) rotate(0) translate(4 1336)">
<title>snakemake_dag</title>
<polygon fill="white" stroke="white" points="-4,5 -4,-1336 422.088,-1336 422.088,5 -4,5"/>
<!-- 0 -->
<g id="node1" class="node"><title>0</title>
<path fill="none" stroke="#567bd8" stroke-width="2" stroke-dasharray="5,2" d="M80,-36C80,-36 50,-36 50,-36 44,-36 38,-30 38,-24 38,-24 38,-12 38,-12 38,-6 44,-0 50,-0 50,-0 80,-0 80,-0 86,-0 92,-6 92,-12 92,-12 92,-24 92,-24 92,-30 86,-36 80,-36"/>
<text text-anchor="middle" x="65" y="-15" font-family="sans" font-size="10.00">all</text>
</g>
<!-- 1 -->
<g id="node2" class="node"><title>1</title>
<path fill="none" stroke="#566bd8" stroke-width="2" stroke-dasharray="5,2" d="M42,-1188C42,-1188 12,-1188 12,-1188 6,-1188 0,-1182 0,-1176 0,-1176 0,-1164 0,-1164 0,-1158 6,-1152 12,-1152 12,-1152 42,-1152 42,-1152 48,-1152 54,-1158 54,-1164 54,-1164 54,-1176 54,-1176 54,-1182 48,-1188 42,-1188"/>
<text text-anchor="middle" x="27" y="-1173" font-family="sans" font-size="10.00">qc</text>
<text text-anchor="middle" x="27" y="-1161" font-family="sans" font-size="10.00">read: 1</text>
</g>
<!-- 1&#45;&gt;0 -->
<g id="edge1" class="edge"><title>1&#45;&gt;0</title>
<path fill="none" stroke="grey" stroke-width="2" d="M27,-1151.95C27,-1125.29 27,-1072.11 27,-1027 27,-1027 27,-1027 27,-161 27,-119.633 42.2348,-73.7216 53.4117,-45.6051"/>
<polygon fill="grey" stroke="grey" points="56.7564,-46.6733 57.3101,-36.0929 50.2793,-44.0187 56.7564,-46.6733"/>
</g>
<!-- 2 -->
<g id="node3" class="node"><title>2</title>
<path fill="none" stroke="#566bd8" stroke-width="2" stroke-dasharray="5,2" d="M97,-1116C97,-1116 67,-1116 67,-1116 61,-1116 55,-1110 55,-1104 55,-1104 55,-1092 55,-1092 55,-1086 61,-1080 67,-1080 67,-1080 97,-1080 97,-1080 103,-1080 109,-1086 109,-1092 109,-1092 109,-1104 109,-1104 109,-1110 103,-1116 97,-1116"/>
<text text-anchor="middle" x="82" y="-1101" font-family="sans" font-size="10.00">qc</text>
<text text-anchor="middle" x="82" y="-1089" font-family="sans" font-size="10.00">read: 2</text>
</g>
<!-- 2&#45;&gt;0 -->
<g id="edge2" class="edge"><title>2&#45;&gt;0</title>
<path fill="none" stroke="grey" stroke-width="2" d="M78.5598,-1079.59C73.5923,-1052.9 65,-1000.19 65,-955 65,-955 65,-955 65,-161 65,-120.996 65,-74.6528 65,-46.0798"/>
<polygon fill="grey" stroke="grey" points="68.5001,-46.0492 65,-36.0493 61.5001,-46.0493 68.5001,-46.0492"/>
</g>
<!-- 3 -->
<g id="node4" class="node"><title>3</title>
<path fill="none" stroke="#56d892" stroke-width="2" stroke-dasharray="5,2" d="M196.564,-108C196.564,-108 105.436,-108 105.436,-108 99.4363,-108 93.4363,-102 93.4363,-96 93.4363,-96 93.4363,-84 93.4363,-84 93.4363,-78 99.4363,-72 105.436,-72 105.436,-72 196.564,-72 196.564,-72 202.564,-72 208.564,-78 208.564,-84 208.564,-84 208.564,-96 208.564,-96 208.564,-102 202.564,-108 196.564,-108"/>
<text text-anchor="middle" x="151" y="-87" font-family="sans" font-size="10.00">filter_non_coding_genes</text>
</g>
<!-- 3&#45;&gt;0 -->
<g id="edge3" class="edge"><title>3&#45;&gt;0</title>
<path fill="none" stroke="grey" stroke-width="2" d="M129.742,-71.6966C118.911,-62.8807 105.582,-52.0321 93.8398,-42.4742"/>
<polygon fill="grey" stroke="grey" points="95.979,-39.7026 86.0139,-36.1043 91.5601,-45.1316 95.979,-39.7026"/>
</g>
<!-- 4 -->
<g id="node5" class="node"><title>4</title>
<path fill="none" stroke="#b6d856" stroke-width="2" stroke-dasharray="5,2" d="M109.28,-1332C109.28,-1332 54.7201,-1332 54.7201,-1332 48.7201,-1332 42.7201,-1326 42.7201,-1320 42.7201,-1320 42.7201,-1308 42.7201,-1308 42.7201,-1302 48.7201,-1296 54.7201,-1296 54.7201,-1296 109.28,-1296 109.28,-1296 115.28,-1296 121.28,-1302 121.28,-1308 121.28,-1308 121.28,-1320 121.28,-1320 121.28,-1326 115.28,-1332 109.28,-1332"/>
<text text-anchor="middle" x="82" y="-1317" font-family="sans" font-size="10.00">trimgalore</text>
<text text-anchor="middle" x="82" y="-1305" font-family="sans" font-size="10.00">sample: ARI_D</text>
</g>
<!-- 4&#45;&gt;1 -->
<g id="edge4" class="edge"><title>4&#45;&gt;1</title>
<path fill="none" stroke="grey" stroke-width="2" d="M75.3657,-1295.87C65.9094,-1271.46 48.4677,-1226.43 37.3164,-1197.64"/>
<polygon fill="grey" stroke="grey" points="40.5334,-1196.25 33.6578,-1188.19 34.0059,-1198.78 40.5334,-1196.25"/>
</g>
<!-- 4&#45;&gt;2 -->
<g id="edge5" class="edge"><title>4&#45;&gt;2</title>
<path fill="none" stroke="grey" stroke-width="2" d="M82,-1295.85C82,-1258.83 82,-1171.18 82,-1126.39"/>
<polygon fill="grey" stroke="grey" points="85.5001,-1126.23 82,-1116.23 78.5001,-1126.23 85.5001,-1126.23"/>
</g>
<!-- 25 -->
<g id="node26" class="node"><title>25</title>
<path fill="none" stroke="#d8bc56" stroke-width="2" stroke-dasharray="5,2" d="M163.413,-1260C163.413,-1260 128.587,-1260 128.587,-1260 122.587,-1260 116.587,-1254 116.587,-1248 116.587,-1248 116.587,-1236 116.587,-1236 116.587,-1230 122.587,-1224 128.587,-1224 128.587,-1224 163.413,-1224 163.413,-1224 169.413,-1224 175.413,-1230 175.413,-1236 175.413,-1236 175.413,-1248 175.413,-1248 175.413,-1254 169.413,-1260 163.413,-1260"/>
<text text-anchor="middle" x="146" y="-1239" font-family="sans" font-size="10.00">align_hisat</text>
</g>
<!-- 4&#45;&gt;25 -->
<g id="edge33" class="edge"><title>4&#45;&gt;25</title>
<path fill="none" stroke="grey" stroke-width="2" d="M97.8202,-1295.7C105.57,-1287.22 115.039,-1276.86 123.524,-1267.58"/>
<polygon fill="grey" stroke="grey" points="126.197,-1269.85 130.362,-1260.1 121.031,-1265.12 126.197,-1269.85"/>
</g>
<!-- 5 -->
<g id="node6" class="node"><title>5</title>
<path fill="none" stroke="#56d8d0" stroke-width="2" stroke-dasharray="5,2" d="M184.239,-180C184.239,-180 117.761,-180 117.761,-180 111.761,-180 105.761,-174 105.761,-168 105.761,-168 105.761,-156 105.761,-156 105.761,-150 111.761,-144 117.761,-144 117.761,-144 184.239,-144 184.239,-144 190.239,-144 196.239,-150 196.239,-156 196.239,-156 196.239,-168 196.239,-168 196.239,-174 190.239,-180 184.239,-180"/>
<text text-anchor="middle" x="151" y="-159" font-family="sans" font-size="10.00">non_coding_genes</text>
</g>
<!-- 5&#45;&gt;3 -->
<g id="edge6" class="edge"><title>5&#45;&gt;3</title>
<path fill="none" stroke="grey" stroke-width="2" d="M151,-143.697C151,-135.983 151,-126.712 151,-118.112"/>
<polygon fill="grey" stroke="grey" points="154.5,-118.104 151,-108.104 147.5,-118.104 154.5,-118.104"/>
</g>
<!-- 6 -->
<g id="node7" class="node"><title>6</title>
<path fill="none" stroke="#ced856" stroke-width="2" stroke-dasharray="5,2" d="M252.056,-540C252.056,-540 123.944,-540 123.944,-540 117.944,-540 111.944,-534 111.944,-528 111.944,-528 111.944,-516 111.944,-516 111.944,-510 117.944,-504 123.944,-504 123.944,-504 252.056,-504 252.056,-504 258.056,-504 264.056,-510 264.056,-516 264.056,-516 264.056,-528 264.056,-528 264.056,-534 258.056,-540 252.056,-540"/>
<text text-anchor="middle" x="188" y="-519" font-family="sans" font-size="10.00">non_coding_transcript_from_cpat</text>
</g>
<!-- 6&#45;&gt;5 -->
<g id="edge7" class="edge"><title>6&#45;&gt;5</title>
<path fill="none" stroke="grey" stroke-width="2" d="M180.512,-503.887C169.701,-477.577 151,-425.366 151,-379 151,-379 151,-379 151,-305 151,-264.996 151,-218.653 151,-190.08"/>
<polygon fill="grey" stroke="grey" points="154.5,-190.049 151,-180.049 147.5,-190.049 154.5,-190.049"/>
</g>
<!-- 10 -->
<g id="node11" class="node"><title>10</title>
<path fill="none" stroke="#56d87b" stroke-width="2" stroke-dasharray="5,2" d="M312.14,-324C312.14,-324 237.86,-324 237.86,-324 231.86,-324 225.86,-318 225.86,-312 225.86,-312 225.86,-300 225.86,-300 225.86,-294 231.86,-288 237.86,-288 237.86,-288 312.14,-288 312.14,-288 318.14,-288 324.14,-294 324.14,-300 324.14,-300 324.14,-312 324.14,-312 324.14,-318 318.14,-324 312.14,-324"/>
<text text-anchor="middle" x="275" y="-303" font-family="sans" font-size="10.00">gene_transcript_pair</text>
</g>
<!-- 6&#45;&gt;10 -->
<g id="edge15" class="edge"><title>6&#45;&gt;10</title>
<path fill="none" stroke="grey" stroke-width="2" d="M186.069,-503.714C183.451,-472.734 181.755,-406.638 208,-360 214.543,-348.373 224.76,-338.374 235.261,-330.293"/>
<polygon fill="grey" stroke="grey" points="237.611,-332.914 243.679,-324.23 233.52,-327.234 237.611,-332.914"/>
</g>
<!-- 18 -->
<g id="node19" class="node"><title>18</title>
<path fill="none" stroke="#56d86b" stroke-width="2" stroke-dasharray="5,2" d="M367.974,-468C367.974,-468 230.026,-468 230.026,-468 224.026,-468 218.026,-462 218.026,-456 218.026,-456 218.026,-444 218.026,-444 218.026,-438 224.026,-432 230.026,-432 230.026,-432 367.974,-432 367.974,-432 373.974,-432 379.974,-438 379.974,-444 379.974,-444 379.974,-456 379.974,-456 379.974,-462 373.974,-468 367.974,-468"/>
<text text-anchor="middle" x="299" y="-447" font-family="sans" font-size="10.00">genelist_for_non_coding_transcripts</text>
</g>
<!-- 6&#45;&gt;18 -->
<g id="edge25" class="edge"><title>6&#45;&gt;18</title>
<path fill="none" stroke="grey" stroke-width="2" d="M215.154,-503.876C229.533,-494.808 247.381,-483.552 262.91,-473.759"/>
<polygon fill="grey" stroke="grey" points="265.15,-476.484 271.742,-468.19 261.416,-470.564 265.15,-476.484"/>
</g>
<!-- 7 -->
<g id="node8" class="node"><title>7</title>
<path fill="none" stroke="#5692d8" stroke-width="2" stroke-dasharray="5,2" d="M358.142,-252C358.142,-252 191.858,-252 191.858,-252 185.858,-252 179.858,-246 179.858,-240 179.858,-240 179.858,-228 179.858,-228 179.858,-222 185.858,-216 191.858,-216 191.858,-216 358.142,-216 358.142,-216 364.142,-216 370.142,-222 370.142,-228 370.142,-228 370.142,-240 370.142,-240 370.142,-246 364.142,-252 358.142,-252"/>
<text text-anchor="middle" x="275" y="-231" font-family="sans" font-size="10.00">coding_isoform_of_non_coding_transcripts</text>
</g>
<!-- 7&#45;&gt;5 -->
<g id="edge8" class="edge"><title>7&#45;&gt;5</title>
<path fill="none" stroke="grey" stroke-width="2" d="M244.666,-215.876C228.303,-206.639 207.917,-195.131 190.346,-185.212"/>
<polygon fill="grey" stroke="grey" points="191.879,-182.058 181.45,-180.19 188.438,-188.154 191.879,-182.058"/>
</g>
<!-- 8 -->
<g id="node9" class="node"><title>8</title>
<path fill="none" stroke="#d86e56" stroke-width="2" stroke-dasharray="5,2" d="M221.306,-612C221.306,-612 154.694,-612 154.694,-612 148.694,-612 142.694,-606 142.694,-600 142.694,-600 142.694,-588 142.694,-588 142.694,-582 148.694,-576 154.694,-576 154.694,-576 221.306,-576 221.306,-576 227.306,-576 233.306,-582 233.306,-588 233.306,-588 233.306,-600 233.306,-600 233.306,-606 227.306,-612 221.306,-612"/>
<text text-anchor="middle" x="188" y="-591" font-family="sans" font-size="10.00">cpat_cpc_intersect</text>
</g>
<!-- 8&#45;&gt;6 -->
<g id="edge9" class="edge"><title>8&#45;&gt;6</title>
<path fill="none" stroke="grey" stroke-width="2" d="M188,-575.697C188,-567.983 188,-558.712 188,-550.112"/>
<polygon fill="grey" stroke="grey" points="191.5,-550.104 188,-540.104 184.5,-550.104 191.5,-550.104"/>
</g>
<!-- 9 -->
<g id="node10" class="node"><title>9</title>
<path fill="none" stroke="#d87d56" stroke-width="2" stroke-dasharray="5,2" d="M240.958,-972C240.958,-972 113.042,-972 113.042,-972 107.042,-972 101.042,-966 101.042,-960 101.042,-960 101.042,-948 101.042,-948 101.042,-942 107.042,-936 113.042,-936 113.042,-936 240.958,-936 240.958,-936 246.958,-936 252.958,-942 252.958,-948 252.958,-948 252.958,-960 252.958,-960 252.958,-966 246.958,-972 240.958,-972"/>
<text text-anchor="middle" x="177" y="-951" font-family="sans" font-size="10.00">gffcompare_for_novel_transcripts</text>
</g>
<!-- 9&#45;&gt;6 -->
<g id="edge10" class="edge"><title>9&#45;&gt;6</title>
<path fill="none" stroke="grey" stroke-width="2" d="M153.469,-935.796C142.296,-926.425 129.728,-913.91 122,-900 102.356,-864.643 103,-851.447 103,-811 103,-811 103,-811 103,-665 103,-623.114 111.575,-611.378 134,-576 140.69,-565.445 149.866,-555.416 158.755,-546.979"/>
<polygon fill="grey" stroke="grey" points="161.382,-549.32 166.423,-540.002 156.671,-544.143 161.382,-549.32"/>
</g>
<!-- 22 -->
<g id="node23" class="node"><title>22</title>
<path fill="none" stroke="#68d856" stroke-width="2" stroke-dasharray="5,2" d="M227.059,-900C227.059,-900 142.941,-900 142.941,-900 136.941,-900 130.941,-894 130.941,-888 130.941,-888 130.941,-876 130.941,-876 130.941,-870 136.941,-864 142.941,-864 142.941,-864 227.059,-864 227.059,-864 233.059,-864 239.059,-870 239.059,-876 239.059,-876 239.059,-888 239.059,-888 239.059,-894 233.059,-900 227.059,-900"/>
<text text-anchor="middle" x="185" y="-879" font-family="sans" font-size="10.00">novel_transcripts_fasta</text>
</g>
<!-- 9&#45;&gt;22 -->
<g id="edge31" class="edge"><title>9&#45;&gt;22</title>
<path fill="none" stroke="grey" stroke-width="2" d="M178.978,-935.697C179.859,-927.983 180.919,-918.712 181.901,-910.112"/>
<polygon fill="grey" stroke="grey" points="185.387,-910.437 183.045,-900.104 178.432,-909.642 185.387,-910.437"/>
</g>
<!-- 10&#45;&gt;7 -->
<g id="edge11" class="edge"><title>10&#45;&gt;7</title>
<path fill="none" stroke="grey" stroke-width="2" d="M275,-287.697C275,-279.983 275,-270.712 275,-262.112"/>
<polygon fill="grey" stroke="grey" points="278.5,-262.104 275,-252.104 271.5,-262.104 278.5,-262.104"/>
</g>
<!-- 11 -->
<g id="node12" class="node"><title>11</title>
<path fill="none" stroke="#80d856" stroke-width="2" stroke-dasharray="5,2" d="M276,-684C276,-684 246,-684 246,-684 240,-684 234,-678 234,-672 234,-672 234,-660 234,-660 234,-654 240,-648 246,-648 246,-648 276,-648 276,-648 282,-648 288,-654 288,-660 288,-660 288,-672 288,-672 288,-678 282,-684 276,-684"/>
<text text-anchor="middle" x="261" y="-663" font-family="sans" font-size="10.00">sort_cpat</text>
</g>
<!-- 11&#45;&gt;8 -->
<g id="edge12" class="edge"><title>11&#45;&gt;8</title>
<path fill="none" stroke="grey" stroke-width="2" d="M242.955,-647.697C233.938,-639.05 222.882,-628.449 213.057,-619.027"/>
<polygon fill="grey" stroke="grey" points="215.478,-616.499 205.837,-612.104 210.633,-621.552 215.478,-616.499"/>
</g>
<!-- 12 -->
<g id="node13" class="node"><title>12</title>
<path fill="none" stroke="#59d856" stroke-width="2" stroke-dasharray="5,2" d="M203,-684C203,-684 173,-684 173,-684 167,-684 161,-678 161,-672 161,-672 161,-660 161,-660 161,-654 167,-648 173,-648 173,-648 203,-648 203,-648 209,-648 215,-654 215,-660 215,-660 215,-672 215,-672 215,-678 209,-684 203,-684"/>
<text text-anchor="middle" x="188" y="-663" font-family="sans" font-size="10.00">sort_cpc</text>
</g>
<!-- 12&#45;&gt;8 -->
<g id="edge13" class="edge"><title>12&#45;&gt;8</title>
<path fill="none" stroke="grey" stroke-width="2" d="M188,-647.697C188,-639.983 188,-630.712 188,-622.112"/>
<polygon fill="grey" stroke="grey" points="191.5,-622.104 188,-612.104 184.5,-622.104 191.5,-622.104"/>
</g>
<!-- 13 -->
<g id="node14" class="node"><title>13</title>
<path fill="none" stroke="#56d8b9" stroke-width="2" stroke-dasharray="5,2" d="M192,-1044C192,-1044 162,-1044 162,-1044 156,-1044 150,-1038 150,-1032 150,-1032 150,-1020 150,-1020 150,-1014 156,-1008 162,-1008 162,-1008 192,-1008 192,-1008 198,-1008 204,-1014 204,-1020 204,-1020 204,-1032 204,-1032 204,-1038 198,-1044 192,-1044"/>
<text text-anchor="middle" x="177" y="-1023" font-family="sans" font-size="10.00">stringtie</text>
</g>
<!-- 13&#45;&gt;9 -->
<g id="edge14" class="edge"><title>13&#45;&gt;9</title>
<path fill="none" stroke="grey" stroke-width="2" d="M177,-1007.7C177,-999.983 177,-990.712 177,-982.112"/>
<polygon fill="grey" stroke="grey" points="180.5,-982.104 177,-972.104 173.5,-982.104 180.5,-982.104"/>
</g>
<!-- 14 -->
<g id="node15" class="node"><title>14</title>
<path fill="none" stroke="#d8a456" stroke-width="2" stroke-dasharray="5,2" d="M370.551,-396C370.551,-396 229.449,-396 229.449,-396 223.449,-396 217.449,-390 217.449,-384 217.449,-384 217.449,-372 217.449,-372 217.449,-366 223.449,-360 229.449,-360 229.449,-360 370.551,-360 370.551,-360 376.551,-360 382.551,-366 382.551,-372 382.551,-372 382.551,-384 382.551,-384 382.551,-390 376.551,-396 370.551,-396"/>
<text text-anchor="middle" x="300" y="-375" font-family="sans" font-size="10.00">all_genes_for_non_coding_transcript</text>
</g>
<!-- 13&#45;&gt;14 -->
<g id="edge20" class="edge"><title>13&#45;&gt;14</title>
<path fill="none" stroke="grey" stroke-width="2" d="M204.205,-1021.47C254.959,-1014.36 361.355,-996.87 388,-972 418.413,-943.613 417,-924.602 417,-883 417,-883 417,-883 417,-521 417,-479.533 414.726,-464.522 389,-432 379.024,-419.389 365.16,-409.121 351.34,-401.099"/>
<polygon fill="grey" stroke="grey" points="352.758,-397.885 342.306,-396.15 349.394,-404.024 352.758,-397.885"/>
</g>
<!-- 14&#45;&gt;10 -->
<g id="edge16" class="edge"><title>14&#45;&gt;10</title>
<path fill="none" stroke="grey" stroke-width="2" d="M293.82,-359.697C291.005,-351.813 287.609,-342.304 284.481,-333.546"/>
<polygon fill="grey" stroke="grey" points="287.768,-332.345 281.109,-324.104 281.176,-334.699 287.768,-332.345"/>
</g>
<!-- 15 -->
<g id="node16" class="node"><title>15</title>
<path fill="none" stroke="#d85656" stroke-width="2" stroke-dasharray="5,2" d="M277.318,-756C277.318,-756 244.682,-756 244.682,-756 238.682,-756 232.682,-750 232.682,-744 232.682,-744 232.682,-732 232.682,-732 232.682,-726 238.682,-720 244.682,-720 244.682,-720 277.318,-720 277.318,-720 283.318,-720 289.318,-726 289.318,-732 289.318,-732 289.318,-744 289.318,-744 289.318,-750 283.318,-756 277.318,-756"/>
<text text-anchor="middle" x="261" y="-735" font-family="sans" font-size="10.00">filter_cpat</text>
</g>
<!-- 15&#45;&gt;11 -->
<g id="edge17" class="edge"><title>15&#45;&gt;11</title>
<path fill="none" stroke="grey" stroke-width="2" d="M261,-719.697C261,-711.983 261,-702.712 261,-694.112"/>
<polygon fill="grey" stroke="grey" points="264.5,-694.104 261,-684.104 257.5,-694.104 264.5,-694.104"/>
</g>
<!-- 16 -->
<g id="node17" class="node"><title>16</title>
<path fill="none" stroke="#56b9d8" stroke-width="2" stroke-dasharray="5,2" d="M201.234,-756C201.234,-756 170.766,-756 170.766,-756 164.766,-756 158.766,-750 158.766,-744 158.766,-744 158.766,-732 158.766,-732 158.766,-726 164.766,-720 170.766,-720 170.766,-720 201.234,-720 201.234,-720 207.234,-720 213.234,-726 213.234,-732 213.234,-732 213.234,-744 213.234,-744 213.234,-750 207.234,-756 201.234,-756"/>
<text text-anchor="middle" x="186" y="-735" font-family="sans" font-size="10.00">filter_cpc</text>
</g>
<!-- 16&#45;&gt;12 -->
<g id="edge18" class="edge"><title>16&#45;&gt;12</title>
<path fill="none" stroke="grey" stroke-width="2" d="M186.494,-719.697C186.715,-711.983 186.98,-702.712 187.225,-694.112"/>
<polygon fill="grey" stroke="grey" points="190.724,-694.2 187.511,-684.104 183.727,-694 190.724,-694.2"/>
</g>
<!-- 17 -->
<g id="node18" class="node"><title>17</title>
<path fill="none" stroke="#56d0d8" stroke-width="2" stroke-dasharray="5,2" d="M180,-1116C180,-1116 150,-1116 150,-1116 144,-1116 138,-1110 138,-1104 138,-1104 138,-1092 138,-1092 138,-1086 144,-1080 150,-1080 150,-1080 180,-1080 180,-1080 186,-1080 192,-1086 192,-1092 192,-1092 192,-1104 192,-1104 192,-1110 186,-1116 180,-1116"/>
<text text-anchor="middle" x="165" y="-1095" font-family="sans" font-size="10.00">sort_bam</text>
</g>
<!-- 17&#45;&gt;13 -->
<g id="edge19" class="edge"><title>17&#45;&gt;13</title>
<path fill="none" stroke="grey" stroke-width="2" d="M167.966,-1079.7C169.289,-1071.98 170.878,-1062.71 172.352,-1054.11"/>
<polygon fill="grey" stroke="grey" points="175.828,-1054.55 174.068,-1044.1 168.928,-1053.37 175.828,-1054.55"/>
</g>
<!-- 18&#45;&gt;14 -->
<g id="edge21" class="edge"><title>18&#45;&gt;14</title>
<path fill="none" stroke="grey" stroke-width="2" d="M299.247,-431.697C299.357,-423.983 299.49,-414.712 299.613,-406.112"/>
<polygon fill="grey" stroke="grey" points="303.112,-406.153 299.756,-396.104 296.113,-406.053 303.112,-406.153"/>
</g>
<!-- 19 -->
<g id="node20" class="node"><title>19</title>
<path fill="none" stroke="#d89556" stroke-width="2" stroke-dasharray="5,2" d="M280,-828C280,-828 250,-828 250,-828 244,-828 238,-822 238,-816 238,-816 238,-804 238,-804 238,-798 244,-792 250,-792 250,-792 280,-792 280,-792 286,-792 292,-798 292,-804 292,-804 292,-816 292,-816 292,-822 286,-828 280,-828"/>
<text text-anchor="middle" x="265" y="-807" font-family="sans" font-size="10.00">cpat</text>
</g>
<!-- 19&#45;&gt;15 -->
<g id="edge22" class="edge"><title>19&#45;&gt;15</title>
<path fill="none" stroke="grey" stroke-width="2" d="M264.011,-791.697C263.57,-783.983 263.041,-774.712 262.549,-766.112"/>
<polygon fill="grey" stroke="grey" points="266.042,-765.888 261.977,-756.104 259.054,-766.288 266.042,-765.888"/>
</g>
<!-- 20 -->
<g id="node21" class="node"><title>20</title>
<path fill="none" stroke="#56a9d8" stroke-width="2" stroke-dasharray="5,2" d="M200,-828C200,-828 170,-828 170,-828 164,-828 158,-822 158,-816 158,-816 158,-804 158,-804 158,-798 164,-792 170,-792 170,-792 200,-792 200,-792 206,-792 212,-798 212,-804 212,-804 212,-816 212,-816 212,-822 206,-828 200,-828"/>
<text text-anchor="middle" x="185" y="-807" font-family="sans" font-size="10.00">cpc</text>
</g>
<!-- 20&#45;&gt;16 -->
<g id="edge23" class="edge"><title>20&#45;&gt;16</title>
<path fill="none" stroke="grey" stroke-width="2" d="M185.247,-791.697C185.357,-783.983 185.49,-774.712 185.613,-766.112"/>
<polygon fill="grey" stroke="grey" points="189.112,-766.153 185.756,-756.104 182.113,-766.053 189.112,-766.153"/>
</g>
<!-- 21 -->
<g id="node22" class="node"><title>21</title>
<path fill="none" stroke="#a7d856" stroke-width="2" stroke-dasharray="5,2" d="M173.244,-1188C173.244,-1188 142.756,-1188 142.756,-1188 136.756,-1188 130.756,-1182 130.756,-1176 130.756,-1176 130.756,-1164 130.756,-1164 130.756,-1158 136.756,-1152 142.756,-1152 142.756,-1152 173.244,-1152 173.244,-1152 179.244,-1152 185.244,-1158 185.244,-1164 185.244,-1164 185.244,-1176 185.244,-1176 185.244,-1182 179.244,-1188 173.244,-1188"/>
<text text-anchor="middle" x="158" y="-1167" font-family="sans" font-size="10.00">sam2bam</text>
</g>
<!-- 21&#45;&gt;17 -->
<g id="edge24" class="edge"><title>21&#45;&gt;17</title>
<path fill="none" stroke="grey" stroke-width="2" d="M159.73,-1151.7C160.502,-1143.98 161.429,-1134.71 162.289,-1126.11"/>
<polygon fill="grey" stroke="grey" points="165.777,-1126.4 163.29,-1116.1 158.812,-1125.71 165.777,-1126.4"/>
</g>
<!-- 22&#45;&gt;19 -->
<g id="edge26" class="edge"><title>22&#45;&gt;19</title>
<path fill="none" stroke="grey" stroke-width="2" d="M204.775,-863.697C214.754,-854.965 227.011,-844.24 237.857,-834.75"/>
<polygon fill="grey" stroke="grey" points="240.231,-837.323 245.452,-828.104 235.622,-832.055 240.231,-837.323"/>
</g>
<!-- 22&#45;&gt;20 -->
<g id="edge29" class="edge"><title>22&#45;&gt;20</title>
<path fill="none" stroke="grey" stroke-width="2" d="M185,-863.697C185,-855.983 185,-846.712 185,-838.112"/>
<polygon fill="grey" stroke="grey" points="188.5,-838.104 185,-828.104 181.5,-838.104 188.5,-838.104"/>
</g>
<!-- 23 -->
<g id="node24" class="node"><title>23</title>
<path fill="none" stroke="#8fd856" stroke-width="2" stroke-dasharray="5,2" d="M376.321,-900C376.321,-900 307.679,-900 307.679,-900 301.679,-900 295.679,-894 295.679,-888 295.679,-888 295.679,-876 295.679,-876 295.679,-870 301.679,-864 307.679,-864 307.679,-864 376.321,-864 376.321,-864 382.321,-864 388.321,-870 388.321,-876 388.321,-876 388.321,-888 388.321,-888 388.321,-894 382.321,-900 376.321,-900"/>
<text text-anchor="middle" x="342" y="-879" font-family="sans" font-size="10.00">cpat_trainig_model</text>
</g>
<!-- 23&#45;&gt;19 -->
<g id="edge27" class="edge"><title>23&#45;&gt;19</title>
<path fill="none" stroke="grey" stroke-width="2" d="M322.966,-863.697C313.455,-855.05 301.793,-844.449 291.43,-835.027"/>
<polygon fill="grey" stroke="grey" points="293.569,-832.241 283.815,-828.104 288.86,-837.421 293.569,-832.241"/>
</g>
<!-- 24 -->
<g id="node25" class="node"><title>24</title>
<path fill="none" stroke="#56d8a9" stroke-width="2" stroke-dasharray="5,2" d="M367.488,-972C367.488,-972 292.512,-972 292.512,-972 286.512,-972 280.512,-966 280.512,-960 280.512,-960 280.512,-948 280.512,-948 280.512,-942 286.512,-936 292.512,-936 292.512,-936 367.488,-936 367.488,-936 373.488,-936 379.488,-942 379.488,-948 379.488,-948 379.488,-960 379.488,-960 379.488,-966 373.488,-972 367.488,-972"/>
<text text-anchor="middle" x="330" y="-951" font-family="sans" font-size="10.00">CPAT_training_data</text>
</g>
<!-- 24&#45;&gt;19 -->
<g id="edge28" class="edge"><title>24&#45;&gt;19</title>
<path fill="none" stroke="grey" stroke-width="2" d="M312.244,-935.845C303.144,-926.122 292.614,-913.273 286,-900 276.293,-880.52 270.96,-856.38 268.1,-838.158"/>
<polygon fill="grey" stroke="grey" points="271.557,-837.603 266.688,-828.193 264.626,-838.585 271.557,-837.603"/>
</g>
<!-- 24&#45;&gt;23 -->
<g id="edge32" class="edge"><title>24&#45;&gt;23</title>
<path fill="none" stroke="grey" stroke-width="2" d="M332.966,-935.697C334.289,-927.983 335.878,-918.712 337.352,-910.112"/>
<polygon fill="grey" stroke="grey" points="340.828,-910.552 339.068,-900.104 333.928,-909.369 340.828,-910.552"/>
</g>
<!-- 25&#45;&gt;21 -->
<g id="edge30" class="edge"><title>25&#45;&gt;21</title>
<path fill="none" stroke="grey" stroke-width="2" d="M148.966,-1223.7C150.289,-1215.98 151.878,-1206.71 153.352,-1198.11"/>
<polygon fill="grey" stroke="grey" points="156.828,-1198.55 155.068,-1188.1 149.928,-1197.37 156.828,-1198.55"/>
</g>
</g>
</svg>
