<?xml version="1.0" encoding="UTF-8" standalone="no"?>
<!DOCTYPE svg PUBLIC "-//W3C//DTD SVG 1.1//EN"
 "http://www.w3.org/Graphics/SVG/1.1/DTD/svg11.dtd">
<!-- Generated by graphviz version 2.30.0 (20130131.1358)
 -->
<!-- Title: snakemake_dag Pages: 1 -->
<svg width="322pt" height="620pt"
 viewBox="0.00 0.00 322.00 620.00" xmlns="http://www.w3.org/2000/svg" xmlns:xlink="http://www.w3.org/1999/xlink">
<g id="graph0" class="graph" transform="scale(1 1) rotate(0) translate(4 616)">
<title>snakemake_dag</title>
<polygon fill="white" stroke="white" points="-4,5 -4,-616 319,-616 319,5 -4,5"/>
<!-- 0 -->
<g id="node1" class="node"><title>0</title>
<path fill="none" stroke="#afd856" stroke-width="2" stroke-dasharray="5,2" d="M172,-36C172,-36 142,-36 142,-36 136,-36 130,-30 130,-24 130,-24 130,-12 130,-12 130,-6 136,-0 142,-0 142,-0 172,-0 172,-0 178,-0 184,-6 184,-12 184,-12 184,-24 184,-24 184,-30 178,-36 172,-36"/>
<text text-anchor="middle" x="157" y="-15" font-family="sans" font-size="10.00">all</text>
</g>
<!-- 1 -->
<g id="node2" class="node"><title>1</title>
<path fill="none" stroke="#56d873" stroke-width="2" stroke-dasharray="5,2" d="M172.494,-108C172.494,-108 141.506,-108 141.506,-108 135.506,-108 129.506,-102 129.506,-96 129.506,-96 129.506,-84 129.506,-84 129.506,-78 135.506,-72 141.506,-72 141.506,-72 172.494,-72 172.494,-72 178.494,-72 184.494,-78 184.494,-84 184.494,-84 184.494,-96 184.494,-96 184.494,-102 178.494,-108 172.494,-108"/>
<text text-anchor="middle" x="157" y="-87" font-family="sans" font-size="10.00">tpm_filter</text>
</g>
<!-- 1&#45;&gt;0 -->
<g id="edge1" class="edge"><title>1&#45;&gt;0</title>
<path fill="none" stroke="grey" stroke-width="2" d="M157,-71.6966C157,-63.9827 157,-54.7125 157,-46.1124"/>
<polygon fill="grey" stroke="grey" points="160.5,-46.1043 157,-36.1043 153.5,-46.1044 160.5,-46.1043"/>
</g>
<!-- 2 -->
<g id="node3" class="node"><title>2</title>
<path fill="none" stroke="#70d856" stroke-width="2" stroke-dasharray="5,2" d="M174.161,-180C174.161,-180 139.839,-180 139.839,-180 133.839,-180 127.839,-174 127.839,-168 127.839,-168 127.839,-156 127.839,-156 127.839,-150 133.839,-144 139.839,-144 139.839,-144 174.161,-144 174.161,-144 180.161,-144 186.161,-150 186.161,-156 186.161,-156 186.161,-168 186.161,-168 186.161,-174 180.161,-180 174.161,-180"/>
<text text-anchor="middle" x="157" y="-159" font-family="sans" font-size="10.00">tpm_mean</text>
</g>
<!-- 2&#45;&gt;1 -->
<g id="edge2" class="edge"><title>2&#45;&gt;1</title>
<path fill="none" stroke="grey" stroke-width="2" d="M157,-143.697C157,-135.983 157,-126.712 157,-118.112"/>
<polygon fill="grey" stroke="grey" points="160.5,-118.104 157,-108.104 153.5,-118.104 160.5,-118.104"/>
</g>
<!-- 3 -->
<g id="node4" class="node"><title>3</title>
<path fill="none" stroke="#56d8a9" stroke-width="2" stroke-dasharray="5,2" d="M186.278,-252C186.278,-252 127.722,-252 127.722,-252 121.722,-252 115.722,-246 115.722,-240 115.722,-240 115.722,-228 115.722,-228 115.722,-222 121.722,-216 127.722,-216 127.722,-216 186.278,-216 186.278,-216 192.278,-216 198.278,-222 198.278,-228 198.278,-228 198.278,-240 198.278,-240 198.278,-246 192.278,-252 186.278,-252"/>
<text text-anchor="middle" x="157" y="-237" font-family="sans" font-size="10.00">tpm_matrix</text>
<text text-anchor="middle" x="157" y="-225" font-family="sans" font-size="10.00">sample: ARI_D</text>
</g>
<!-- 3&#45;&gt;2 -->
<g id="edge3" class="edge"><title>3&#45;&gt;2</title>
<path fill="none" stroke="grey" stroke-width="2" d="M157,-215.697C157,-207.983 157,-198.712 157,-190.112"/>
<polygon fill="grey" stroke="grey" points="160.5,-190.104 157,-180.104 153.5,-190.104 160.5,-190.104"/>
</g>
<!-- 4 -->
<g id="node5" class="node"><title>4</title>
<path fill="none" stroke="#d85656" stroke-width="2" stroke-dasharray="5,2" d="M80.0832,-324C80.0832,-324 45.9168,-324 45.9168,-324 39.9168,-324 33.9168,-318 33.9168,-312 33.9168,-312 33.9168,-300 33.9168,-300 33.9168,-294 39.9168,-288 45.9168,-288 45.9168,-288 80.0832,-288 80.0832,-288 86.0832,-288 92.0832,-294 92.0832,-300 92.0832,-300 92.0832,-312 92.0832,-312 92.0832,-318 86.0832,-324 80.0832,-324"/>
<text text-anchor="middle" x="63" y="-303" font-family="sans" font-size="10.00">tpm_quant</text>
</g>
<!-- 4&#45;&gt;3 -->
<g id="edge4" class="edge"><title>4&#45;&gt;3</title>
<path fill="none" stroke="grey" stroke-width="2" d="M86.236,-287.697C98.1883,-278.796 112.923,-267.823 125.847,-258.199"/>
<polygon fill="grey" stroke="grey" points="128.101,-260.884 134.031,-252.104 123.92,-255.27 128.101,-260.884"/>
</g>
<!-- 5 -->
<g id="node6" class="node"><title>5</title>
<path fill="none" stroke="#d85656" stroke-width="2" stroke-dasharray="5,2" d="M174.083,-324C174.083,-324 139.917,-324 139.917,-324 133.917,-324 127.917,-318 127.917,-312 127.917,-312 127.917,-300 127.917,-300 127.917,-294 133.917,-288 139.917,-288 139.917,-288 174.083,-288 174.083,-288 180.083,-288 186.083,-294 186.083,-300 186.083,-300 186.083,-312 186.083,-312 186.083,-318 180.083,-324 174.083,-324"/>
<text text-anchor="middle" x="157" y="-303" font-family="sans" font-size="10.00">tpm_quant</text>
</g>
<!-- 5&#45;&gt;3 -->
<g id="edge5" class="edge"><title>5&#45;&gt;3</title>
<path fill="none" stroke="grey" stroke-width="2" d="M157,-287.697C157,-279.983 157,-270.712 157,-262.112"/>
<polygon fill="grey" stroke="grey" points="160.5,-262.104 157,-252.104 153.5,-262.104 160.5,-262.104"/>
</g>
<!-- 6 -->
<g id="node7" class="node"><title>6</title>
<path fill="none" stroke="#d85656" stroke-width="2" stroke-dasharray="5,2" d="M268.083,-324C268.083,-324 233.917,-324 233.917,-324 227.917,-324 221.917,-318 221.917,-312 221.917,-312 221.917,-300 221.917,-300 221.917,-294 227.917,-288 233.917,-288 233.917,-288 268.083,-288 268.083,-288 274.083,-288 280.083,-294 280.083,-300 280.083,-300 280.083,-312 280.083,-312 280.083,-318 274.083,-324 268.083,-324"/>
<text text-anchor="middle" x="251" y="-303" font-family="sans" font-size="10.00">tpm_quant</text>
</g>
<!-- 6&#45;&gt;3 -->
<g id="edge6" class="edge"><title>6&#45;&gt;3</title>
<path fill="none" stroke="grey" stroke-width="2" d="M227.764,-287.697C215.812,-278.796 201.077,-267.823 188.153,-258.199"/>
<polygon fill="grey" stroke="grey" points="190.08,-255.27 179.969,-252.104 185.899,-260.884 190.08,-255.27"/>
</g>
<!-- 7 -->
<g id="node8" class="node"><title>7</title>
<path fill="none" stroke="#56c9d8" stroke-width="2" stroke-dasharray="5,2" d="M80.5996,-396C80.5996,-396 11.4004,-396 11.4004,-396 5.40042,-396 -0.599581,-390 -0.599581,-384 -0.599581,-384 -0.599581,-372 -0.599581,-372 -0.599581,-366 5.40042,-360 11.4004,-360 11.4004,-360 80.5996,-360 80.5996,-360 86.5996,-360 92.5996,-366 92.5996,-372 92.5996,-372 92.5996,-384 92.5996,-384 92.5996,-390 86.5996,-396 80.5996,-396"/>
<text text-anchor="middle" x="46" y="-381" font-family="sans" font-size="10.00">salmon_quant</text>
<text text-anchor="middle" x="46" y="-369" font-family="sans" font-size="10.00">replicate: ARI_D1</text>
</g>
<!-- 7&#45;&gt;4 -->
<g id="edge7" class="edge"><title>7&#45;&gt;4</title>
<path fill="none" stroke="grey" stroke-width="2" d="M50.2022,-359.697C52.0962,-351.898 54.3765,-342.509 56.4843,-333.829"/>
<polygon fill="grey" stroke="grey" points="59.8872,-334.648 58.8461,-324.104 53.0849,-332.996 59.8872,-334.648"/>
</g>
<!-- 8 -->
<g id="node9" class="node"><title>8</title>
<path fill="none" stroke="#56c9d8" stroke-width="2" stroke-dasharray="5,2" d="M191.6,-396C191.6,-396 122.4,-396 122.4,-396 116.4,-396 110.4,-390 110.4,-384 110.4,-384 110.4,-372 110.4,-372 110.4,-366 116.4,-360 122.4,-360 122.4,-360 191.6,-360 191.6,-360 197.6,-360 203.6,-366 203.6,-372 203.6,-372 203.6,-384 203.6,-384 203.6,-390 197.6,-396 191.6,-396"/>
<text text-anchor="middle" x="157" y="-381" font-family="sans" font-size="10.00">salmon_quant</text>
<text text-anchor="middle" x="157" y="-369" font-family="sans" font-size="10.00">replicate: ARI_D2</text>
</g>
<!-- 8&#45;&gt;5 -->
<g id="edge8" class="edge"><title>8&#45;&gt;5</title>
<path fill="none" stroke="grey" stroke-width="2" d="M157,-359.697C157,-351.983 157,-342.712 157,-334.112"/>
<polygon fill="grey" stroke="grey" points="160.5,-334.104 157,-324.104 153.5,-334.104 160.5,-334.104"/>
</g>
<!-- 9 -->
<g id="node10" class="node"><title>9</title>
<path fill="none" stroke="#56c9d8" stroke-width="2" stroke-dasharray="5,2" d="M302.6,-396C302.6,-396 233.4,-396 233.4,-396 227.4,-396 221.4,-390 221.4,-384 221.4,-384 221.4,-372 221.4,-372 221.4,-366 227.4,-360 233.4,-360 233.4,-360 302.6,-360 302.6,-360 308.6,-360 314.6,-366 314.6,-372 314.6,-372 314.6,-384 314.6,-384 314.6,-390 308.6,-396 302.6,-396"/>
<text text-anchor="middle" x="268" y="-381" font-family="sans" font-size="10.00">salmon_quant</text>
<text text-anchor="middle" x="268" y="-369" font-family="sans" font-size="10.00">replicate: ARI_D3</text>
</g>
<!-- 9&#45;&gt;6 -->
<g id="edge9" class="edge"><title>9&#45;&gt;6</title>
<path fill="none" stroke="grey" stroke-width="2" d="M263.798,-359.697C261.904,-351.898 259.623,-342.509 257.516,-333.829"/>
<polygon fill="grey" stroke="grey" points="260.915,-332.996 255.154,-324.104 254.113,-334.648 260.915,-332.996"/>
</g>
<!-- 10 -->
<g id="node11" class="node"><title>10</title>
<path fill="none" stroke="#5692d8" stroke-width="2" stroke-dasharray="5,2" d="M168.078,-468C168.078,-468 119.922,-468 119.922,-468 113.922,-468 107.922,-462 107.922,-456 107.922,-456 107.922,-444 107.922,-444 107.922,-438 113.922,-432 119.922,-432 119.922,-432 168.078,-432 168.078,-432 174.078,-432 180.078,-438 180.078,-444 180.078,-444 180.078,-456 180.078,-456 180.078,-462 174.078,-468 168.078,-468"/>
<text text-anchor="middle" x="144" y="-447" font-family="sans" font-size="10.00">salmon_index</text>
</g>
<!-- 10&#45;&gt;7 -->
<g id="edge10" class="edge"><title>10&#45;&gt;7</title>
<path fill="none" stroke="grey" stroke-width="2" d="M120.027,-431.876C107.45,-422.893 91.8675,-411.763 78.2478,-402.034"/>
<polygon fill="grey" stroke="grey" points="80.2374,-399.154 70.0657,-396.19 76.1687,-404.85 80.2374,-399.154"/>
</g>
<!-- 10&#45;&gt;8 -->
<g id="edge12" class="edge"><title>10&#45;&gt;8</title>
<path fill="none" stroke="grey" stroke-width="2" d="M147.213,-431.697C148.646,-423.983 150.368,-414.712 151.965,-406.112"/>
<polygon fill="grey" stroke="grey" points="155.439,-406.575 153.823,-396.104 148.556,-405.297 155.439,-406.575"/>
</g>
<!-- 10&#45;&gt;9 -->
<g id="edge14" class="edge"><title>10&#45;&gt;9</title>
<path fill="none" stroke="grey" stroke-width="2" d="M174.334,-431.876C190.697,-422.639 211.083,-411.131 228.654,-401.212"/>
<polygon fill="grey" stroke="grey" points="230.562,-404.154 237.55,-396.19 227.121,-398.058 230.562,-404.154"/>
</g>
<!-- 11 -->
<g id="node12" class="node"><title>11</title>
<path fill="none" stroke="#d88d56" stroke-width="2" stroke-dasharray="5,2" d="M203.07,-612C203.07,-612 148.93,-612 148.93,-612 142.93,-612 136.93,-606 136.93,-600 136.93,-600 136.93,-588 136.93,-588 136.93,-582 142.93,-576 148.93,-576 148.93,-576 203.07,-576 203.07,-576 209.07,-576 215.07,-582 215.07,-588 215.07,-588 215.07,-600 215.07,-600 215.07,-606 209.07,-612 203.07,-612"/>
<text text-anchor="middle" x="176" y="-597" font-family="sans" font-size="10.00">stringtie_merge</text>
<text text-anchor="middle" x="176" y="-585" font-family="sans" font-size="10.00">species: ARI</text>
</g>
<!-- 11&#45;&gt;7 -->
<g id="edge11" class="edge"><title>11&#45;&gt;7</title>
<path fill="none" stroke="grey" stroke-width="2" d="M136.753,-582.685C114.297,-574.727 87.5761,-561.372 72,-540 43.1839,-500.461 41.4232,-440.945 43.3225,-406.435"/>
<polygon fill="grey" stroke="grey" points="46.8343,-406.385 44.0381,-396.166 39.8513,-405.899 46.8343,-406.385"/>
</g>
<!-- 11&#45;&gt;8 -->
<g id="edge13" class="edge"><title>11&#45;&gt;8</title>
<path fill="none" stroke="grey" stroke-width="2" d="M185.131,-575.88C190.007,-565.756 195.507,-552.506 198,-540 207.415,-492.763 204.78,-477.508 189,-432 185.742,-422.603 180.658,-413.075 175.494,-404.738"/>
<polygon fill="grey" stroke="grey" points="178.336,-402.688 169.943,-396.222 172.472,-406.511 178.336,-402.688"/>
</g>
<!-- 11&#45;&gt;9 -->
<g id="edge15" class="edge"><title>11&#45;&gt;9</title>
<path fill="none" stroke="grey" stroke-width="2" d="M190.852,-575.776C198.851,-565.832 208.402,-552.793 215,-540 238.005,-495.398 253.881,-438.77 261.916,-405.934"/>
<polygon fill="grey" stroke="grey" points="265.333,-406.693 264.248,-396.154 258.524,-405.069 265.333,-406.693"/>
</g>
<!-- 12 -->
<g id="node13" class="node"><title>12</title>
<path fill="none" stroke="#d8cb56" stroke-width="2" stroke-dasharray="5,2" d="M177.059,-540C177.059,-540 92.9413,-540 92.9413,-540 86.9413,-540 80.9413,-534 80.9413,-528 80.9413,-528 80.9413,-516 80.9413,-516 80.9413,-510 86.9413,-504 92.9413,-504 92.9413,-504 177.059,-504 177.059,-504 183.059,-504 189.059,-510 189.059,-516 189.059,-516 189.059,-528 189.059,-528 189.059,-534 183.059,-540 177.059,-540"/>
<text text-anchor="middle" x="135" y="-519" font-family="sans" font-size="10.00">novel_transcripts_fasta</text>
</g>
<!-- 11&#45;&gt;12 -->
<g id="edge17" class="edge"><title>11&#45;&gt;12</title>
<path fill="none" stroke="grey" stroke-width="2" d="M165.865,-575.697C161.148,-567.644 155.438,-557.894 150.218,-548.982"/>
<polygon fill="grey" stroke="grey" points="153.092,-546.964 145.018,-540.104 147.052,-550.502 153.092,-546.964"/>
</g>
<!-- 12&#45;&gt;10 -->
<g id="edge16" class="edge"><title>12&#45;&gt;10</title>
<path fill="none" stroke="grey" stroke-width="2" d="M137.225,-503.697C138.217,-495.983 139.408,-486.712 140.514,-478.112"/>
<polygon fill="grey" stroke="grey" points="143.997,-478.469 141.801,-468.104 137.054,-477.576 143.997,-478.469"/>
</g>
</g>
</svg>
